<svg width="64" height="64" viewBox="0 0 64 64" fill="none" xmlns="http://www.w3.org/2000/svg">
<g clip-path="url(#clip0_608_32)">
<path d="M40 52.132L38.555 51.168C38.219 50.943 37.782 50.943 37.446 51.168L35 52.798L32.555 51.168C32.219 50.943 31.782 50.943 31.446 51.168L29 52.798L26.555 51.168C26.219 50.943 25.782 50.943 25.446 51.168L24 52.132V30H22V54C22 54.269 22.11 54.521 22.295 54.705L22.293 54.707L31.293 63.707C31.488 63.902 31.744 64 32 64C32.256 64 32.512 63.902 32.707 63.707L41.707 54.707L41.705 54.705C41.89 54.521 42 54.269 42 54V35H40V52.132ZM26 53.202L28.445 54.832C28.781 55.057 29.218 55.057 29.554 54.832L32 53.202L34.445 54.832C34.781 55.057 35.218 55.057 35.554 54.832L38 53.202L39.43 54.155L35.586 58H28.414L24.57 54.156L26 53.202ZM32 61.586L30.414 60H33.586L32 61.586Z" fill="#DC9554"/>
<path d="M19.0929 21.2869C18.9749 20.9249 18.6619 20.6609 18.2849 20.6059L15.3869 20.1839L14.0899 17.5569C13.7539 16.8729 12.6329 16.8729 12.2969 17.5569L10.9999 20.1849L8.1019 20.6069C7.7249 20.6619 7.4129 20.9249 7.2939 21.2879C7.1769 21.6489 7.2739 22.0469 7.5469 22.3119L9.6449 24.3569L9.1499 27.2449C9.0859 27.6199 9.2399 27.9989 9.5469 28.2229C9.8569 28.4489 10.2649 28.4769 10.6009 28.2989L13.1939 26.9359L15.7869 28.2989C15.9329 28.3759 16.0939 28.4139 16.2529 28.4139C16.4599 28.4139 16.6659 28.3499 16.8409 28.2229C17.1489 27.9989 17.3029 27.6199 17.2379 27.2449L16.7429 24.3569L18.8409 22.3119C19.1119 22.0459 19.2099 21.6479 19.0929 21.2869ZM14.9699 23.2909C14.7349 23.5199 14.6269 23.8519 14.6829 24.1759L14.9239 25.5849L13.6589 24.9199C13.5129 24.8429 13.3529 24.8049 13.1929 24.8049C13.0329 24.8049 12.8739 24.8429 12.7269 24.9199L11.4619 25.5849L11.7029 24.1759C11.7589 23.8519 11.6509 23.5209 11.4159 23.2909L10.3929 22.2939L11.8069 22.0879C12.1329 22.0409 12.4139 21.8359 12.5599 21.5409L13.1929 20.2599L13.8259 21.5409C13.9719 21.8359 14.2529 22.0409 14.5789 22.0879L15.9929 22.2939L14.9699 23.2909Z" fill="#DC9554"/>
<path d="M18.0674 8.63292L17.4484 12.2439C17.3844 12.6189 17.5384 12.9979 17.8454 13.2229C18.1554 13.4469 18.5624 13.4759 18.8994 13.2979L22.1414 11.5929L25.3834 13.2979C25.5294 13.3749 25.6904 13.4129 25.8494 13.4129C26.0564 13.4129 26.2624 13.3489 26.4374 13.2229C26.7454 12.9979 26.8994 12.6189 26.8344 12.2439L26.2154 8.63292L28.8394 6.07492C29.1114 5.80892 29.2094 5.41192 29.0924 5.05092C28.9744 4.68892 28.6614 4.42492 28.2844 4.36992L24.6604 3.84292L23.0384 0.557922C22.7024 -0.126078 21.5814 -0.126078 21.2454 0.557922L19.6244 3.84292L15.9984 4.36992C15.6214 4.42492 15.3094 4.68792 15.1904 5.05092C15.0734 5.41192 15.1704 5.80992 15.4434 6.07492L18.0674 8.63292ZM20.4324 5.74592C20.7584 5.69892 21.0394 5.49392 21.1854 5.19892L22.1424 3.25992L23.1004 5.19892C23.2464 5.49392 23.5274 5.69892 23.8534 5.74592L25.9934 6.05792L24.4444 7.56792C24.2094 7.79692 24.1014 8.12892 24.1574 8.45292L24.5224 10.5859L22.6084 9.57892C22.4624 9.50192 22.3024 9.46392 22.1424 9.46392C21.9824 9.46392 21.8234 9.50192 21.6764 9.57892L19.7624 10.5859L20.1274 8.45292C20.1834 8.12892 20.0754 7.79792 19.8404 7.56792L18.2914 6.05792L20.4324 5.74592Z" fill="#DC9554"/>
<path d="M45.7164 15.063L49.8404 11.043C50.1124 10.777 50.2104 10.38 50.0934 10.019C49.9754 9.65698 49.6624 9.39298 49.2854 9.33799L43.5874 8.50998L41.0384 3.34698C40.7024 2.66298 39.5814 2.66298 39.2454 3.34698L36.6964 8.50998L30.9984 9.33898C30.6214 9.39398 30.3094 9.65699 30.1904 10.02C30.0734 10.381 30.1704 10.779 30.4434 11.044L34.5674 15.064L33.5934 20.74C33.5294 21.115 33.6834 21.494 33.9904 21.718C34.3004 21.943 34.7084 21.972 35.0444 21.794L40.1414 19.114L45.2384 21.794C45.3844 21.871 45.5454 21.909 45.7044 21.909C45.9114 21.909 46.1174 21.845 46.2924 21.718C46.6004 21.494 46.7544 21.115 46.6894 20.74L45.7164 15.063ZM43.9434 13.998C43.7084 14.227 43.6004 14.559 43.6564 14.883L44.3764 19.08L40.6074 17.099C40.4614 17.022 40.3014 16.984 40.1414 16.984C39.9814 16.984 39.8224 17.022 39.6754 17.099L35.9064 19.08L36.6264 14.883C36.6824 14.559 36.5744 14.228 36.3394 13.998L33.2904 11.026L37.5034 10.413C37.8294 10.366 38.1104 10.161 38.2564 9.86598L40.1414 6.04898L42.0264 9.86598C42.1724 10.161 42.4534 10.366 42.7794 10.413L46.9924 11.026L43.9434 13.998Z" fill="#DC9554"/>
<path d="M57.1314 26.2239L54.5964 25.8559L53.4614 23.5579C53.1254 22.8739 52.0044 22.8739 51.6684 23.5579L50.5344 25.8559L47.9984 26.2239C47.6214 26.2789 47.3094 26.5419 47.1904 26.9039C47.0734 27.2659 47.1704 27.6639 47.4434 27.9289L49.2794 29.7179L48.8454 32.2439C48.7814 32.6189 48.9354 32.9979 49.2424 33.2219C49.4174 33.3489 49.6234 33.4129 49.8304 33.4129C49.9894 33.4129 50.1494 33.3749 50.2964 33.2979L52.5644 32.1059L54.8324 33.2979C55.1694 33.4759 55.5774 33.4459 55.8864 33.2229C56.1944 32.9979 56.3484 32.6189 56.2834 32.2439L55.8504 29.7179L57.6854 27.9289C57.9574 27.6629 58.0554 27.2659 57.9384 26.9039C57.8204 26.5419 57.5084 26.2779 57.1314 26.2239ZM54.0784 28.6529C53.8434 28.8819 53.7354 29.2139 53.7914 29.5379L53.9704 30.5849L53.0314 30.0909C52.8854 30.0139 52.7254 29.9759 52.5654 29.9759C52.4054 29.9759 52.2464 30.0139 52.0994 30.0909L51.1604 30.5849L51.3404 29.5379C51.3964 29.2139 51.2884 28.8829 51.0534 28.6529L50.2924 27.9109L51.3434 27.7589C51.6694 27.7119 51.9504 27.5069 52.0964 27.2119L52.5664 26.2599L53.0374 27.2119C53.1834 27.5079 53.4644 27.7119 53.7904 27.7589L54.8414 27.9109L54.0784 28.6529Z" fill="#DC9554"/>
<path d="M29 37H31C31 29.832 25.617 24 19 24V26C24.514 26 29 30.935 29 37Z" fill="#DC9554"/>
<path d="M35 42H37C37 34.953 40.206 29 44 29V27C38.953 27 35 33.589 35 42Z" fill="#DC9554"/>
<path d="M27 25H29C29 22.794 30.346 21 32 21V19C29.243 19 27 21.691 27 25Z" fill="#DC9554"/>
<path d="M20 16C21.654 16 23 17.794 23 20H25C25 16.691 22.757 14 20 14V16Z" fill="#DC9554"/>
<path d="M41 24V22C36.037 22 32 26.486 32 32H34C34 27.589 37.141 24 41 24Z" fill="#DC9554"/>
<path d="M37 44H35V46H37V44Z" fill="#DC9554"/>
<path d="M34 34H32V36H34V34Z" fill="#DC9554"/>
<path d="M31 39H29V41H31V39Z" fill="#DC9554"/>
<path d="M31 43H29V45H31V43Z" fill="#DC9554"/>
<path d="M31 47H29V49H31V47Z" fill="#DC9554"/>
<path d="M14 30H12V32H14V30Z" fill="#DC9554"/>
<path d="M2 16H0V18H2V16Z" fill="#DC9554"/>
<path d="M10 12H8V14H10V12Z" fill="#DC9554"/>
<path d="M51 17H49V19H51V17Z" fill="#DC9554"/>
<path d="M62 10H60V12H62V10Z" fill="#DC9554"/>
<path d="M6 5H4V7H6V5Z" fill="#DC9554"/>
<path d="M13 4H11V6H13V4Z" fill="#DC9554"/>
<path d="M50 3H48V5H50V3Z" fill="#DC9554"/>
<path d="M56 11H54V13H56V11Z" fill="#DC9554"/>
<path d="M4 24H2V26H0V28H2V30H4V28H6V26H4V24Z" fill="#DC9554"/>
<path d="M61 16H59V18H57V20H59V22H61V20H63V18H61V16Z" fill="#DC9554"/>
<path d="M61 0C59.346 0 58 1.346 58 3C58 4.654 59.346 6 61 6C62.654 6 64 4.654 64 3C64 1.346 62.654 0 61 0ZM61 4C60.448 4 60 3.552 60 3C60 2.448 60.448 2 61 2C61.552 2 62 2.448 62 3C62 3.552 61.552 4 61 4Z" fill="#DC9554"/>
</g>
<defs>
<clipPath id="clip0_608_32">
<rect width="64" height="64" fill="white"/>
</clipPath>
</defs>
</svg>
