<svg width="49" height="50" viewBox="0 0 49 50" fill="none" xmlns="http://www.w3.org/2000/svg">
<path d="M2 48.25V42C2 34.406 8.15608 28.25 15.75 28.25H25.75M12 48.25V40.75M32 12C32 17.5229 27.5228 22 22 22C16.4771 22 12 17.5229 12 12C12 6.47715 16.4771 2 22 2C27.5228 2 32 6.47715 32 12ZM35.75 28.2495C34.6098 26.7317 32.7945 25.75 30.75 25.75C27.2983 25.75 24.5 28.5483 24.5 32C24.5 33.5487 25.0633 34.966 25.9963 36.0578L35.75 48.25L45.5038 36.0578C46.4368 34.966 47 33.5487 47 32C47 28.5483 44.2017 25.75 40.75 25.75C38.7055 25.75 36.8902 26.7317 35.75 28.2495Z" stroke="#DC9554" stroke-width="3" stroke-linecap="round" stroke-linejoin="round"/>
</svg>
