<svg width="48" height="44" viewBox="0 0 48 44" fill="none" xmlns="http://www.w3.org/2000/svg">
<path d="M24 18V42M24 18C24 12.3995 24 9.59923 22.91 7.4601C21.9513 5.57848 20.4215 4.04867 18.5399 3.08992C16.4008 2 13.6005 2 8 2H5.5C4.09987 2 3.3998 2 2.86503 2.27248C2.39463 2.51218 2.01217 2.89463 1.77247 3.36503C1.5 3.8998 1.5 4.59987 1.5 6V33C1.5 34.4002 1.5 35.1003 1.77247 35.635C2.01217 36.1055 2.39463 36.4878 2.86503 36.7275C3.3998 37 4.09987 37 5.5 37H12.8667C14.2172 37 14.8924 37 15.5454 37.1165C16.1249 37.2198 16.6903 37.3908 17.2298 37.6265C17.8376 37.8918 18.3994 38.2663 19.523 39.0155L24 42M24 18C24 12.3995 24 9.59923 25.09 7.4601C26.0487 5.57848 27.5785 4.04867 29.46 3.08992C31.5993 2 34.3995 2 40 2H42.5C43.9002 2 44.6003 2 45.135 2.27248C45.6055 2.51218 45.9878 2.89463 46.2275 3.36503C46.5 3.8998 46.5 4.59987 46.5 6V33C46.5 34.4002 46.5 35.1003 46.2275 35.635C45.9878 36.1055 45.6055 36.4878 45.135 36.7275C44.6003 37 43.9002 37 42.5 37H35.1333C33.7828 37 33.1075 37 32.4547 37.1165C31.875 37.2198 31.3098 37.3908 30.7703 37.6265C30.1625 37.8918 29.6005 38.2663 28.477 39.0155L24 42" stroke="#DC9554" stroke-width="3" stroke-linecap="round" stroke-linejoin="round"/>
</svg>
