<?xml version="1.0" encoding="UTF-8"?><svg xmlns="http://www.w3.org/2000/svg" viewBox="0 0 517.02 517.02"><defs><style>.d{fill:#ffe655;}.e{fill:#f9c319;}</style></defs><g id="a"/><g id="b"><g id="c"><g><path class="e" d="M517.02,258.51c0,69.38-27.33,132.38-71.82,178.81-.26,.27-.52,.54-.79,.81-47.01,48.64-112.92,78.88-185.9,78.88s-138.9-30.24-185.9-78.88c-.26-.27-.53-.54-.79-.81C27.33,390.89,0,327.89,0,258.51,0,115.74,115.74,0,258.51,0s258.51,115.74,258.51,258.51Z"/><circle class="d" cx="258.51" cy="173.6" r="99.41"/><path class="d" d="M444.41,423.01v15.13c-47.01,48.64-112.92,78.88-185.9,78.88s-138.9-30.24-185.9-78.88v-15.13c0-76.41,44.32-116.96,185.9-116.96s185.9,47.31,185.9,116.96Z"/></g></g></g></svg>