<svg width="114" height="43" viewBox="0 0 114 43" fill="none" xmlns="http://www.w3.org/2000/svg">
<path d="M2 11.4684L8.5 10.4684L14 16.4684V24.4684H2V11.4684Z" fill="#FB2235"/>
<path d="M23.5 21.4684L27.5 13.4684L31 21.9684L33 27.4684H21L23.5 21.4684Z" fill="#FF7314"/>
<path d="M101.5 21.4684L105.5 13.4684L109 21.9684L111 27.4684H99L101.5 21.4684Z" fill="#BB00FF"/>
<path d="M41.8333 11.4684H46.4167H51V32.4684H41L41.8333 11.4684Z" fill="#2A8B27"/>
<path d="M94.5 11.5L87 11H82.875V33.5H85H85.4448C87.2486 33.5 88.8293 32.2927 89.3039 30.5525L94.5 11.5Z" fill="#3D33FF"/>
<path d="M75.9297 7.67645C76.2917 7.67269 76.5376 8.04309 76.3936 8.37531L70.8662 21.1245C70.7085 21.4882 70.2105 21.5326 69.9911 21.2025L61.6098 8.59736C61.3901 8.26699 61.6243 7.82465 62.021 7.82054L75.9297 7.67645Z" fill="#2DF0DA"/>
<path d="M4.85938 23.4997L5.53125 23.5778L6.75 23.6872C6.90625 23.6976 7.0625 23.7028 7.21875 23.7028C9.28125 23.7028 11.0052 23.1091 12.3906 21.9216C13.4219 21.0362 13.9583 19.9893 14 18.7809V18.6403C14 17.4737 13.526 16.4528 12.5781 15.5778C10.6927 13.8382 8.51042 12.5518 6.03125 11.7184L5.04688 11.4684L4.48438 11.3591L3.82812 11.2184V17.3591C3.82812 19.7549 3.91667 21.7705 4.09375 23.4059L4.85938 23.4997ZM4.53125 27.5153C4.48958 27.9424 4.46875 28.432 4.46875 28.9841C4.46875 29.2653 4.47396 29.557 4.48438 29.8591L4.5625 32.1559V32.2184C4.5625 33.1143 4.36458 33.7184 3.96875 34.0309C3.58333 34.3226 3.18229 34.4684 2.76562 34.4684C2.55729 34.4684 2.34375 34.432 2.125 34.3591C1.46875 34.1403 1.05729 33.6872 0.890625 32.9997L0.84375 32.7184L0.734375 32.0153L0.65625 31.3122L0.40625 26.1716L0.140625 21.0309C0.046875 18.8018 0 16.7601 0 14.9059C0 13.3851 0.03125 11.9893 0.09375 10.7184L0.125 10.1247L0.171875 9.51532C0.390625 8.24449 1.5625 7.60907 3.6875 7.60907C4.125 7.60907 4.60938 7.63511 5.14062 7.68719C6.44271 7.83303 7.64583 8.15074 8.75 8.64032C11.3229 9.78615 13.4896 11.1872 15.25 12.8434C16.9896 14.4997 17.8594 16.4372 17.8594 18.6559C17.8594 18.9476 17.8438 19.2445 17.8125 19.5466C17.5521 22.1507 16.2708 24.182 13.9688 25.6403C11.9792 26.9112 9.79167 27.5466 7.40625 27.5466C7.22917 27.5466 7.04688 27.5414 6.85938 27.5309L5.75 27.5153H4.53125ZM29.2969 25.2653L28.7188 23.1403L28.1406 21.0934L27.0469 17.0778L26.7656 17.1247L25.7188 21.1403L24.6406 25.2653H29.2969ZM30.5469 29.0934C28.9531 28.9476 27.526 28.8747 26.2656 28.8747C25.2656 28.8747 24.375 28.9216 23.5938 29.0153C23.3438 29.3174 23.1094 29.708 22.8906 30.1872L22.3594 31.3903C21.9219 32.3487 21.3698 32.9737 20.7031 33.2653C19.7969 33.1507 19.3438 32.6976 19.3438 31.9059C19.3438 31.7601 19.3594 31.6091 19.3906 31.4528L19.7031 30.1559L20.0781 28.8747L24.2656 13.7341L24.9531 11.6403L25.7188 9.56219C25.9167 9.03094 26.1719 8.59865 26.4844 8.26532C26.8385 7.86949 27.2396 7.67157 27.6875 7.67157C27.7917 7.67157 27.901 7.68199 28.0156 7.70282C28.5781 7.82782 28.974 8.20803 29.2031 8.84344L29.3281 9.60907C29.4531 11.7132 29.8385 14.0414 30.4844 16.5934L31.4375 19.9997L32.4844 23.3903L34.7969 30.9059C34.9844 31.583 35.0781 32.2914 35.0781 33.0309V33.1559C35.0573 33.9684 34.6615 34.4059 33.8906 34.4684H33.7031C33.1406 34.4684 32.6927 34.3018 32.3594 33.9684C32.1719 33.7809 32 33.5257 31.8438 33.2028L31.5 32.2966L31.0156 30.7341L30.5469 29.0934ZM43.7969 11.4059C43.7552 11.708 43.7344 12.1976 43.7344 12.8747C43.7344 14.458 43.8438 17.0466 44.0625 20.6403C44.3646 25.7862 44.625 28.7028 44.8438 29.3903L47.5938 29.5309C47.8229 29.5414 48.0417 29.5466 48.25 29.5466C49.0417 29.5466 49.7656 29.4997 50.4219 29.4059V27.1872L50.2969 23.8903L50.1875 20.5934L50.1719 17.0153V13.4216L50.1094 12.5778L50 11.7028L46.875 11.5466L43.7969 11.4059ZM55.8438 37.4372C54.9583 37.2601 54.4635 36.7862 54.3594 36.0153L54.3125 35.4841L54.2656 34.8903C54.2135 34.4112 54.099 33.9893 53.9219 33.6247L50.5469 33.3591L47.1094 33.1559L43.7344 33.1091L40.3125 33.1247C40.125 34.9893 40.0052 35.9737 39.9531 36.0778C39.6823 36.6507 39.2292 36.958 38.5938 36.9997H38.4531C37.8802 36.9997 37.4531 36.7445 37.1719 36.2341C37.0156 35.932 36.9115 35.5466 36.8594 35.0778C36.6406 33.0882 36.5312 31.833 36.5312 31.3122C36.5312 31.2289 36.5365 31.1664 36.5469 31.1247C36.5885 30.7809 36.7135 30.4841 36.9219 30.2341C37.3177 29.7757 37.9479 29.5153 38.8125 29.4528L39.9062 29.3903C40.3229 29.3487 40.6771 29.2705 40.9688 29.1559L40.625 23.5934L39.9375 11.7809L40.0156 10.0309C40.1615 8.40594 40.9896 7.59344 42.5 7.59344H42.6094L47.0625 7.76532L51.5156 7.99969C52.5885 8.05178 53.2552 8.65074 53.5156 9.79657C53.6719 10.4632 53.7604 11.2966 53.7812 12.2966L54.0938 27.0309L54.2031 28.3591L54.4062 29.7341C55.1667 29.7862 55.9583 29.8382 56.7812 29.8903C57.5938 30.2653 58 30.9528 58 31.9528V35.2184C57.9792 36.5414 57.2604 37.2809 55.8438 37.4372ZM67.6094 23.1403L66.6562 21.5622L64.8125 18.5466L60.25 11.2809C59.7917 10.5518 59.5625 9.92157 59.5625 9.39032C59.5625 8.85907 59.7969 8.43199 60.2656 8.10907C60.5781 7.89032 60.8958 7.78094 61.2188 7.78094C61.8438 7.78094 62.4792 8.20803 63.125 9.06219L65.1719 11.9997L67.125 15.0153L68.5312 17.3122L69.9219 19.6872C70.2656 19.5205 70.5156 19.2601 70.6719 18.9059L70.8125 18.4528L70.9531 17.9997L72 14.9841L73.0469 11.9684L73.5469 10.6559C73.7552 10.1768 73.974 9.76532 74.2031 9.42157C74.7031 8.66115 75.2656 8.1299 75.8906 7.82782C76.1406 7.70282 76.3854 7.64032 76.625 7.64032C76.9479 7.64032 77.2552 7.76011 77.5469 7.99969C77.9635 8.34344 78.1719 8.77574 78.1719 9.29657C78.1719 9.41115 78.1615 9.52574 78.1406 9.64032L78.0312 10.0153L77.8906 10.3903L72.2031 25.9528L70.8906 29.2966L69.5469 32.6247L69.3906 32.9841C68.8594 33.9737 68.2448 34.4684 67.5469 34.4684C67.3281 34.4684 67.0938 34.4164 66.8438 34.3122C66.1146 33.9997 65.75 33.4632 65.75 32.7028C65.75 32.3695 65.8229 31.9893 65.9688 31.5622L66.7656 29.4059L67.6406 27.2809L68.1406 25.9997L68.5938 24.7809L67.6094 23.1403ZM95.0625 11.6247C94.9688 11.7705 94.2604 11.8434 92.9375 11.8434C92.3333 11.8434 91.6094 11.8278 90.7656 11.7966L89.0156 11.7341L87.2188 11.7184C85.8646 11.7184 84.776 11.7757 83.9531 11.8903L83.875 12.4841L83.8438 13.0622L84.4062 31.8434V32.4684C84.3125 33.6039 83.8073 34.2549 82.8906 34.4216C82.7135 34.4528 82.5521 34.4684 82.4062 34.4684C81.5729 34.4684 81.0365 34.0153 80.7969 33.1091C80.4427 31.7132 80.2552 30.3643 80.2344 29.0622L80.1406 20.9997L80.0781 12.9528L79.9062 10.7809C79.8854 10.6039 79.875 10.4268 79.875 10.2497C79.875 9.53094 80.0729 8.92678 80.4688 8.43719C80.7083 8.14553 81.0208 7.97365 81.4062 7.92157L82.375 7.78094L83.4531 7.71844C86.2448 7.76011 88.5521 7.83303 90.375 7.93719C91.3438 7.99969 92.2865 8.16636 93.2031 8.43719C94.5156 8.83303 95.1719 9.60907 95.1719 10.7653C95.1719 11.0257 95.1354 11.3122 95.0625 11.6247ZM106.578 25.2653L106 23.1403L105.422 21.0934L104.328 17.0778L104.047 17.1247L103 21.1403L101.922 25.2653H106.578ZM107.828 29.0934C106.234 28.9476 104.807 28.8747 103.547 28.8747C102.547 28.8747 101.656 28.9216 100.875 29.0153C100.625 29.3174 100.391 29.708 100.172 30.1872L99.6406 31.3903C99.2031 32.3487 98.651 32.9737 97.9844 33.2653C97.0781 33.1507 96.625 32.6976 96.625 31.9059C96.625 31.7601 96.6406 31.6091 96.6719 31.4528L96.9844 30.1559L97.3594 28.8747L101.547 13.7341L102.234 11.6403L103 9.56219C103.198 9.03094 103.453 8.59865 103.766 8.26532C104.12 7.86949 104.521 7.67157 104.969 7.67157C105.073 7.67157 105.182 7.68199 105.297 7.70282C105.859 7.82782 106.255 8.20803 106.484 8.84344L106.609 9.60907C106.734 11.7132 107.12 14.0414 107.766 16.5934L108.719 19.9997L109.766 23.3903L112.078 30.9059C112.266 31.583 112.359 32.2914 112.359 33.0309V33.1559C112.339 33.9684 111.943 34.4059 111.172 34.4684H110.984C110.422 34.4684 109.974 34.3018 109.641 33.9684C109.453 33.7809 109.281 33.5257 109.125 33.2028L108.781 32.2966L108.297 30.7341L107.828 29.0934Z" fill="white"/>
</svg>
